<?xml version="1.0" encoding="UTF-8" standalone="no"?>
<!-- Created with Inkscape (http://www.inkscape.org/) -->

<svg
   version="1.1"
   id="svg2"
   width="257.33334"
   height="257.33334"
   viewBox="0 0 257.33334 257.33334"
   sodipodi:docname="Brisbane_City_Council (1).eps"
   xmlns:inkscape="http://www.inkscape.org/namespaces/inkscape"
   xmlns:sodipodi="http://sodipodi.sourceforge.net/DTD/sodipodi-0.dtd"
   xmlns="http://www.w3.org/2000/svg"
   xmlns:svg="http://www.w3.org/2000/svg">
  <defs
     id="defs6" />
  <sodipodi:namedview
     id="namedview4"
     pagecolor="#ffffff"
     bordercolor="#000000"
     borderopacity="0.25"
     inkscape:showpageshadow="2"
     inkscape:pageopacity="0.0"
     inkscape:pagecheckerboard="0"
     inkscape:deskcolor="#d1d1d1" />
  <g
     id="g8"
     inkscape:groupmode="layer"
     inkscape:label="ink_ext_XXXXXX"
     transform="matrix(1.3333333,0,0,-1.3333333,0,257.33333)">
    <g
       id="g10"
       transform="scale(0.1)">
      <path
         d="M 0,1927.56 H 1927.56 V 0 H 0 v 1927.56"
         style="fill:#ffffff;fill-opacity:1;fill-rule:evenodd;stroke:none"
         id="path12" />
      <path
         d="M 1810.4,1806.03 H 117.152 V 118.613 H 1810.4 Z M 1842.52,89.418 H 85.0391 V 1838.14 H 1842.52 V 89.418"
         style="fill:#299adb;fill-opacity:1;fill-rule:nonzero;stroke:none"
         id="path14" />
      <path
         d="m 1178.08,670.105 h 430.52 c 20.16,0 33.57,-13.503 33.57,-26.824 0,-20.254 -13.41,-33.656 -33.57,-33.656 h -430.52 c -20.17,0 -27.01,13.402 -27.01,33.656 0,13.321 6.84,26.824 27.01,26.824"
         style="fill:#299adb;fill-opacity:1;fill-rule:evenodd;stroke:none"
         id="path16" />
      <path
         d="M 884.688,1282.27 H 1046.25 V 858.496 l -80.645,46.984 -80.917,-46.984 v 423.774"
         style="fill:#299adb;fill-opacity:1;fill-rule:evenodd;stroke:none"
         id="path18" />
      <path
         d="m 366.855,232.836 v 0 c 13.454,6.746 20.208,20.344 20.208,33.758 0,33.66 -26.915,40.23 -47.215,40.23 H 292.77 v -147.98 h 53.918 c 20.167,0 47.074,13.504 47.074,40.504 0,20.168 -13.453,33.488 -26.907,33.488 z m -47.074,47.16 h 20.067 c 6.84,0 20.3,-6.746 20.3,-20.25 0,-6.566 -13.46,-13.32 -20.3,-13.32 h -20.067 z m 26.907,-94.234 h -26.907 v 33.754 h 20.067 c 13.593,0 27.007,0 27.007,-13.508 0,-13.406 -13.414,-20.246 -20.167,-20.246"
         style="fill:#299adb;fill-opacity:1;fill-rule:evenodd;stroke:none"
         id="path20" />
      <path
         d="m 763.711,232.836 v 0 c 13.457,6.746 20.117,20.344 20.117,33.758 0,33.66 -20.117,40.23 -47.121,40.23 h -47.078 v -147.98 h 53.918 c 20.164,0 47.074,13.504 47.074,40.504 0,20.168 -6.793,33.488 -26.91,33.488 z m -46.981,47.16 h 19.977 c 13.543,0 20.293,-6.746 20.293,-20.25 0,-6.566 -6.75,-13.32 -20.293,-13.32 H 716.73 Z m 26.817,-94.234 H 716.73 v 33.754 h 19.977 c 13.543,0 27.004,0 27.004,-13.508 0,-13.406 -13.461,-20.246 -20.164,-20.246"
         style="fill:#299adb;fill-opacity:1;fill-rule:evenodd;stroke:none"
         id="path22" />
      <path
         d="m 481.215,219.516 c 20.207,6.664 26.91,20.066 26.91,40.23 0,33.758 -20.301,47.078 -47.074,47.078 h -53.824 v -147.98 h 33.527 v 60.672 h 13.547 l 26.914,-60.672 h 33.613 z m -26.914,26.91 h -13.547 v 33.57 h 20.297 c 6.707,0 20.164,-6.746 20.164,-20.25 0,-13.32 -13.457,-13.32 -26.914,-13.32"
         style="fill:#299adb;fill-opacity:1;fill-rule:evenodd;stroke:none"
         id="path24" />
      <path
         d="m 1288.38,1188.12 c 33.57,0 73.99,-13.6 114.41,-53.83 6.75,53.83 53.73,87.31 67.14,94.15 -20.07,-27.01 -20.07,-67.32 -20.07,-107.65 26.82,20.25 80.55,26.82 127.63,6.66 -26.82,0 -67.15,-13.41 -87.31,-40.24 60.49,6.75 107.66,-20.25 134.48,-60.66 -33.57,13.59 -73.99,20.25 -114.32,13.59 20.07,-13.59 60.49,-60.671 80.75,-100.902 -26.92,13.317 -47.08,20.16 -87.5,26.821 6.75,-13.504 20.16,-47.079 20.16,-100.895 -13.41,20.242 -26.82,40.316 -53.82,53.816 6.75,-6.746 13.51,-20.16 6.75,-40.406 -6.75,13.59 -20.16,26.906 -20.16,26.906 V 360.648 H 494.668 v 60.579 H 1396.04 V 918.98 c -6.76,0 -20.25,-13.5 -27.01,-26.816 -6.66,13.316 0,20.07 0,40.231 -26.82,-13.415 -33.57,-26.915 -60.49,-53.821 6.75,33.66 20.08,60.664 40.41,94.239 -27,6.656 -74.07,-13.415 -107.65,-26.825 20.26,33.481 67.24,67.142 107.65,80.562 -27,20.25 -67.41,20.25 -121.14,13.59 47.07,47.07 80.73,53.82 141.22,47.07 -13.41,33.58 -47.08,73.91 -80.65,100.91"
         style="fill:#299adb;fill-opacity:1;fill-rule:evenodd;stroke:none"
         id="path26" />
      <path
         d="M 1638.16,562.547 V 380.809 c 0,-13.313 -6.75,-20.161 -20.25,-20.161 -13.41,0 -26.82,6.848 -26.82,20.161 v 181.738 c 0,13.406 13.41,20.062 26.82,20.062 13.5,0 20.25,-6.656 20.25,-20.062"
         style="fill:#299adb;fill-opacity:1;fill-rule:evenodd;stroke:none"
         id="path28" />
      <path
         d="M 1577.49,562.547 V 380.809 c 0,-13.313 -13.32,-20.161 -19.97,-20.161 -13.51,0 -27.11,6.848 -27.11,20.161 v 181.738 c 0,13.406 13.6,20.062 27.11,20.062 6.65,0 19.97,-6.656 19.97,-20.062"
         style="fill:#299adb;fill-opacity:1;fill-rule:evenodd;stroke:none"
         id="path30" />
      <path
         d="m 494.668,461.551 v 100.996 c 0,13.406 6.754,20.062 20.16,20.062 13.461,0 20.207,-6.656 20.207,-20.062 V 461.551 c 0,-13.324 -6.746,-20.071 -20.207,-20.071 -13.406,0 -20.16,6.747 -20.16,20.071"
         style="fill:#299adb;fill-opacity:1;fill-rule:evenodd;stroke:none"
         id="path32" />
      <path
         d="m 555.195,461.551 v 100.996 c 0,13.406 6.758,20.062 20.172,20.062 13.36,0 20.199,-6.656 20.199,-20.062 V 461.551 c 0,-13.324 -6.839,-20.071 -20.199,-20.071 -13.414,0 -20.172,6.747 -20.172,20.071"
         style="fill:#299adb;fill-opacity:1;fill-rule:evenodd;stroke:none"
         id="path34" />
      <path
         d="m 615.734,461.551 v 100.996 c 0,13.406 6.75,20.062 20.114,20.062 13.55,0 20.257,-6.656 20.257,-20.062 V 461.551 c 0,-13.324 -6.707,-20.071 -20.257,-20.071 -13.364,0 -20.114,6.747 -20.114,20.071"
         style="fill:#299adb;fill-opacity:1;fill-rule:evenodd;stroke:none"
         id="path36" />
      <path
         d="m 676.262,461.551 v 100.996 c 0,13.406 6.758,20.062 20.207,20.062 13.414,0 20.261,-6.656 20.261,-20.062 V 461.551 c 0,-13.324 -6.847,-20.071 -20.261,-20.071 -13.449,0 -20.207,6.747 -20.207,20.071"
         style="fill:#299adb;fill-opacity:1;fill-rule:evenodd;stroke:none"
         id="path38" />
      <path
         d="m 736.707,461.551 v 100.996 c 0,13.406 6.84,20.062 20.293,20.062 13.461,0 26.828,-6.656 26.828,-20.062 V 461.551 c 0,-13.324 -13.367,-20.071 -26.828,-20.071 -13.453,0 -20.293,6.747 -20.293,20.071"
         style="fill:#299adb;fill-opacity:1;fill-rule:evenodd;stroke:none"
         id="path40" />
      <path
         d="m 824.242,461.551 v 208.554 c 0,6.75 6.75,20.254 20.207,20.254 13.457,0 20.16,-13.504 20.16,-20.254 V 461.551 c 0,-13.324 -6.703,-20.071 -20.16,-20.071 -13.457,0 -20.207,6.747 -20.207,20.071"
         style="fill:#299adb;fill-opacity:1;fill-rule:evenodd;stroke:none"
         id="path42" />
      <path
         d="m 884.688,461.551 v 208.554 c 0,6.75 6.843,20.254 20.296,20.254 13.45,0 20.11,-13.504 20.11,-20.254 V 461.551 c 0,-13.324 -6.66,-20.071 -20.11,-20.071 -13.453,0 -20.296,6.747 -20.296,20.071"
         style="fill:#299adb;fill-opacity:1;fill-rule:evenodd;stroke:none"
         id="path44" />
      <path
         d="m 945.355,461.551 v 208.554 c 0,6.75 6.75,20.254 20.25,20.254 13.325,0 19.977,-13.504 19.977,-20.254 V 461.551 c 0,-13.324 -6.652,-20.071 -19.977,-20.071 -13.5,0 -20.25,6.747 -20.25,20.071"
         style="fill:#299adb;fill-opacity:1;fill-rule:evenodd;stroke:none"
         id="path46" />
      <path
         d="m 1005.93,461.551 v 208.554 c 0,6.75 6.66,20.254 20.07,20.254 13.5,0 20.25,-13.504 20.25,-20.254 V 461.551 c 0,-13.324 -6.75,-20.071 -20.25,-20.071 -13.41,0 -20.07,6.747 -20.07,20.071"
         style="fill:#299adb;fill-opacity:1;fill-rule:evenodd;stroke:none"
         id="path48" />
      <path
         d="m 1066.41,461.551 v 208.554 c 0,6.75 6.67,20.254 20.17,20.254 13.49,0 27,-13.504 27,-20.254 V 461.551 c 0,-13.324 -13.51,-20.071 -27,-20.071 -13.5,0 -20.17,6.747 -20.17,20.071"
         style="fill:#299adb;fill-opacity:1;fill-rule:evenodd;stroke:none"
         id="path50" />
      <path
         d="m 1153.91,461.551 v 100.996 c 0,13.406 6.66,20.062 20.07,20.062 13.5,0 20.25,-6.656 20.25,-20.062 V 461.551 c 0,-13.324 -6.75,-20.071 -20.25,-20.071 -13.41,0 -20.07,6.747 -20.07,20.071"
         style="fill:#299adb;fill-opacity:1;fill-rule:evenodd;stroke:none"
         id="path52" />
      <path
         d="m 1214.39,461.551 v 100.996 c 0,13.406 6.66,20.062 20.17,20.062 13.5,0 20.25,-6.656 20.25,-20.062 V 461.551 c 0,-13.324 -6.75,-20.071 -20.25,-20.071 -13.51,0 -20.17,6.747 -20.17,20.071"
         style="fill:#299adb;fill-opacity:1;fill-rule:evenodd;stroke:none"
         id="path54" />
      <path
         d="m 1274.88,461.551 v 100.996 c 0,13.406 6.66,20.062 20.26,20.062 13.4,0 20.15,-6.656 20.15,-20.062 V 461.551 c 0,-13.324 -6.75,-20.071 -20.15,-20.071 -13.6,0 -20.26,6.747 -20.26,20.071"
         style="fill:#299adb;fill-opacity:1;fill-rule:evenodd;stroke:none"
         id="path56" />
      <path
         d="m 1335.46,461.551 v 100.996 c 0,13.406 6.75,20.062 20.16,20.062 13.41,0 20.17,-6.656 20.17,-20.062 V 461.551 c 0,-13.324 -6.76,-20.071 -20.17,-20.071 -13.41,0 -20.16,6.747 -20.16,20.071"
         style="fill:#299adb;fill-opacity:1;fill-rule:evenodd;stroke:none"
         id="path58" />
      <path
         d="m 965.605,1759.77 c 13.325,0 26.817,-13.5 26.817,-26.82 0,-13.59 -13.492,-20.25 -26.817,-20.25 -13.5,0 -27.007,6.66 -27.007,20.25 0,13.32 13.507,26.82 27.007,26.82"
         style="fill:#299adb;fill-opacity:1;fill-rule:evenodd;stroke:none"
         id="path60" />
      <path
         d="m 965.605,1692.44 80.645,-161.3 H 884.688 Z"
         style="fill:#299adb;fill-opacity:1;fill-rule:evenodd;stroke:none"
         id="path62" />
      <path
         d="M 1046.25,1423.41 V 1322.5 c 0,-13.41 -6.75,-20.16 -20.25,-20.16 -13.41,0 -20.07,6.75 -20.07,20.16 v 100.91 c 0,13.58 6.66,20.16 20.07,20.16 13.5,0 20.25,-6.58 20.25,-20.16"
         style="fill:#299adb;fill-opacity:1;fill-rule:evenodd;stroke:none"
         id="path64" />
      <path
         d="m 884.688,1504.23 h 161.562 v -40.41 H 884.688 v 40.41"
         style="fill:#299adb;fill-opacity:1;fill-rule:evenodd;stroke:none"
         id="path66" />
      <path
         d="M 992.422,1423.41 V 1322.5 c 0,-13.41 -13.492,-20.16 -26.817,-20.16 -6.839,0 -20.25,6.75 -20.25,20.16 v 100.91 c 0,13.58 13.411,20.16 20.25,20.16 13.325,0 26.817,-6.58 26.817,-20.16"
         style="fill:#299adb;fill-opacity:1;fill-rule:evenodd;stroke:none"
         id="path68" />
      <path
         d="m 884.688,1423.41 c 0,13.58 13.546,20.16 27,20.16 6.746,0 20.152,-6.58 20.152,-20.16 V 1322.5 c 0,-13.41 -13.406,-20.16 -20.152,-20.16 -13.454,0 -27,6.75 -27,20.16 v 100.91"
         style="fill:#299adb;fill-opacity:1;fill-rule:evenodd;stroke:none"
         id="path70" />
      <path
         d="M 757,730.594 965.605,851.656 1173.98,730.594 c 13.5,-6.66 13.5,-20.074 6.65,-33.485 -6.65,-6.75 -20.06,-13.589 -26.72,-6.75 L 965.605,798.012 777.168,690.359 c -6.707,-6.839 -20.168,0 -26.918,6.75 -6.703,13.411 0,26.825 6.75,33.485"
         style="fill:#299adb;fill-opacity:1;fill-rule:evenodd;stroke:none"
         id="path72" />
      <path
         d="M 319.781,670.105 H 750.25 c 20.211,0 33.578,-13.503 33.578,-26.824 0,-20.254 -13.367,-33.656 -33.578,-33.656 H 319.781 c -20.172,0 -27.011,13.402 -27.011,33.656 0,13.321 6.839,26.824 27.011,26.824"
         style="fill:#299adb;fill-opacity:1;fill-rule:evenodd;stroke:none"
         id="path74" />
      <path
         d="M 461.051,569.207 V 380.809 c 0,-13.313 -13.457,-20.161 -26.914,-20.161 -13.36,0 -20.164,6.848 -20.164,20.161 v 188.398 c 0,6.746 6.804,20.25 20.164,20.25 13.457,0 26.914,-13.504 26.914,-20.25"
         style="fill:#299adb;fill-opacity:1;fill-rule:evenodd;stroke:none"
         id="path76" />
      <path
         d="M 333.23,569.207 V 380.809 c 0,-13.313 -6.703,-20.161 -20.156,-20.161 -13.465,0 -20.304,6.848 -20.304,20.161 v 188.398 c 0,6.746 6.839,20.25 20.304,20.25 13.453,0 20.156,-13.504 20.156,-20.25"
         style="fill:#299adb;fill-opacity:1;fill-rule:evenodd;stroke:none"
         id="path78" />
      <path
         d="m 393.762,380.809 c 0,-13.313 -6.699,-20.161 -20.157,-20.161 -13.457,0 -20.164,6.848 -20.164,20.161 v 188.398 c 0,6.746 6.707,20.25 20.164,20.25 13.458,0 20.157,-13.504 20.157,-20.25 V 380.809"
         style="fill:#299adb;fill-opacity:1;fill-rule:evenodd;stroke:none"
         id="path80" />
      <path
         d="m 528.289,306.824 h 33.664 v -147.98 h -33.664 v 147.98"
         style="fill:#299adb;fill-opacity:1;fill-rule:evenodd;stroke:none"
         id="path82" />
      <path
         d="m 622.484,158.844 c -20.211,0 -33.757,0 -47.117,13.504 l 20.199,27 c 6.707,-6.746 20.168,-13.586 26.918,-13.586 6.704,0 20.161,6.84 20.161,13.586 0,26.832 -60.532,13.328 -60.532,60.398 0,33.758 20.16,47.078 47.075,47.078 13.457,0 33.625,0 40.371,-13.32 L 649.398,273.25 c 0,0 -13.55,6.746 -20.21,6.746 -6.704,0 -20.161,-6.746 -20.161,-13.402 0,-27.012 60.532,-13.414 60.532,-60.586 0,-33.66 -20.161,-47.164 -47.075,-47.164"
         style="fill:#299adb;fill-opacity:1;fill-rule:evenodd;stroke:none"
         id="path84" />
      <path
         d="m 1073.08,158.844 h -40.42 l -53.73,107.75 v -107.75 h -33.575 v 147.98 h 40.227 L 1039.5,206.008 v 100.816 h 33.58 v -147.98"
         style="fill:#299adb;fill-opacity:1;fill-rule:evenodd;stroke:none"
         id="path86" />
      <path
         d="m 1187.48,158.844 h -94.14 v 147.98 h 94.14 V 273.25 h -60.57 v -26.824 h 53.72 v -26.91 h -53.72 v -26.914 h 60.57 v -33.758"
         style="fill:#299adb;fill-opacity:1;fill-rule:evenodd;stroke:none"
         id="path88" />
      <path
         d="m 1295.14,158.844 c -40.33,0 -67.33,26.918 -67.33,73.992 0,47.16 27,73.988 67.33,73.988 20.15,0 33.48,0 47.07,-20.168 l -20.26,-20.062 c -6.66,6.656 -13.41,13.402 -26.81,13.402 -20.26,0 -40.33,-20.25 -40.33,-47.16 0,-26.828 20.07,-47.074 40.33,-47.074 13.4,0 20.15,6.84 26.81,13.586 l 20.26,-20.246 c -6.75,-13.5 -26.92,-20.258 -47.07,-20.258"
         style="fill:#299adb;fill-opacity:1;fill-rule:evenodd;stroke:none"
         id="path90" />
      <path
         d="m 1355.62,306.824 h 33.66 v -147.98 h -33.66 v 147.98"
         style="fill:#299adb;fill-opacity:1;fill-rule:evenodd;stroke:none"
         id="path92" />
      <path
         d="m 1503.59,279.996 h -33.66 V 158.844 h -33.57 v 121.152 h -33.57 v 26.828 h 100.8 v -26.828"
         style="fill:#299adb;fill-opacity:1;fill-rule:evenodd;stroke:none"
         id="path94" />
      <path
         d="m 1496.93,360.648 c -13.49,0 -27,6.848 -27,20.161 v 181.738 c 0,13.406 13.51,20.062 27,20.062 6.66,0 20.09,-6.656 20.09,-20.062 V 380.809 c 0,-13.313 -13.43,-20.161 -20.09,-20.161"
         style="fill:#299adb;fill-opacity:1;fill-rule:evenodd;stroke:none"
         id="path96" />
      <path
         d="m 1591.09,219.516 v -60.672 h -26.92 v 60.672 l -53.83,87.308 h 40.33 l 26.82,-53.644 27.01,53.644 h 33.66 l -47.07,-87.308"
         style="fill:#299adb;fill-opacity:1;fill-rule:evenodd;stroke:none"
         id="path98" />
      <path
         d="m 878.07,306.824 h -26.922 l -53.769,-147.98 h 33.613 l 6.617,33.758 h 53.922 l 13.453,-33.758 h 26.856 z m -26.922,-87.308 13.461,40.23 13.461,-40.23 z"
         style="fill:#299adb;fill-opacity:1;fill-rule:evenodd;stroke:none"
         id="path100" />
      <path
         d="m 1032.66,1127.45 c 0,33.67 -33.48,67.32 -67.055,67.32 -33.765,0 -67.371,-33.65 -67.371,-67.32 0,-33.49 33.606,-67.15 67.371,-67.15 33.575,0 67.055,33.66 67.055,67.15"
         style="fill:#ffffff;fill-opacity:1;fill-rule:evenodd;stroke:none"
         id="path102" />
      <path
         d="m 1005.93,1114.04 c 0,-6.66 -6.75,-6.66 -6.75,-6.66 l -33.575,20.07 c 0,0 -6.839,0 -6.839,13.59 v 26.82 c 0,6.66 0,13.5 6.839,13.5 6.567,0 6.567,-6.84 6.567,-13.5 v -26.82 l 33.758,-20.25 c 6.66,0 6.66,-6.75 0,-6.75"
         style="fill:#299adb;fill-opacity:1;fill-rule:evenodd;stroke:none"
         id="path104" />
    </g>
  </g>
</svg>
