<?xml version="1.0" encoding="UTF-8" standalone="no"?>
<!-- Created with Inkscape (http://www.inkscape.org/) -->

<svg
   version="1.1"
   id="svg2"
   width="257.33334"
   height="257.33334"
   viewBox="0 0 257.33334 257.33334"
   sodipodi:docname="Brisbane_City_Council.eps"
   xmlns:inkscape="http://www.inkscape.org/namespaces/inkscape"
   xmlns:sodipodi="http://sodipodi.sourceforge.net/DTD/sodipodi-0.dtd"
   xmlns="http://www.w3.org/2000/svg"
   xmlns:svg="http://www.w3.org/2000/svg">
  <defs
     id="defs6" />
  <sodipodi:namedview
     id="namedview4"
     pagecolor="#ffffff"
     bordercolor="#000000"
     borderopacity="0.25"
     inkscape:showpageshadow="2"
     inkscape:pageopacity="0.0"
     inkscape:pagecheckerboard="0"
     inkscape:deskcolor="#d1d1d1" />
  <g
     id="g8"
     inkscape:groupmode="layer"
     inkscape:label="ink_ext_XXXXXX"
     transform="matrix(1.3333333,0,0,-1.3333333,0,257.33333)">
    <g
       id="g10"
       transform="scale(0.1)">
      <path
         d="M 0,1927.56 H 1927.56 V 0 H 0 v 1927.56"
         style="fill:#ffffff;fill-opacity:1;fill-rule:evenodd;stroke:none"
         id="path12" />
      <path
         d="M 1842.52,89.4219 H 85.0391 V 1838.14 H 1842.52 V 89.4219"
         style="fill:#299adb;fill-opacity:1;fill-rule:nonzero;stroke:none"
         id="path14" />
      <path
         d="M 1810.4,1806.03 H 117.152 V 118.613 H 1810.4 V 1806.03"
         style="fill:#333697;fill-opacity:1;fill-rule:nonzero;stroke:none"
         id="path16" />
      <path
         d="m 1178.07,670.109 h 430.53 c 20.16,0 33.57,-13.507 33.57,-26.828 0,-20.25 -13.41,-33.664 -33.57,-33.664 h -430.53 c -20.16,0 -27,13.414 -27,33.664 0,13.321 6.84,26.828 27,26.828"
         style="fill:#f0d112;fill-opacity:1;fill-rule:evenodd;stroke:none"
         id="path18" />
      <path
         d="m 366.855,232.84 v 0 c 13.458,6.738 20.211,20.336 20.211,33.754 0,33.664 -26.918,40.238 -47.218,40.238 H 292.77 v -147.98 h 53.921 c 20.164,0 47.071,13.496 47.071,40.5 0,20.168 -13.449,33.488 -26.907,33.488 z m -47.074,47.156 h 20.067 c 6.843,0 20.3,-6.734 20.3,-20.25 0,-6.57 -13.457,-13.324 -20.3,-13.324 h -20.067 z m 26.91,-94.234 h -26.91 v 33.758 h 20.067 c 13.597,0 27.007,0 27.007,-13.516 0,-13.399 -13.41,-20.242 -20.164,-20.242"
         style="fill:#ffffff;fill-opacity:1;fill-rule:evenodd;stroke:none"
         id="path20" />
      <path
         d="m 763.707,232.84 v 0 c 13.461,6.738 20.117,20.336 20.117,33.754 0,33.664 -20.117,40.238 -47.121,40.238 h -47.078 v -147.98 h 53.922 c 20.16,0 47.074,13.496 47.074,40.5 0,20.168 -6.797,33.488 -26.914,33.488 z m -46.977,47.156 h 19.973 c 13.547,0 20.297,-6.734 20.297,-20.25 0,-6.57 -6.75,-13.324 -20.297,-13.324 H 716.73 Z m 26.817,-94.234 H 716.73 v 33.758 h 19.973 c 13.547,0 27.004,0 27.004,-13.516 0,-13.399 -13.457,-20.242 -20.16,-20.242"
         style="fill:#ffffff;fill-opacity:1;fill-rule:evenodd;stroke:none"
         id="path22" />
      <path
         d="m 481.215,219.52 c 20.203,6.664 26.91,20.058 26.91,40.226 0,33.762 -20.301,47.086 -47.074,47.086 h -53.824 v -147.98 h 33.527 v 60.668 h 13.543 l 26.918,-60.668 h 33.613 z m -26.918,26.902 h -13.543 v 33.574 h 20.297 c 6.703,0 20.164,-6.734 20.164,-20.25 0,-13.324 -13.461,-13.324 -26.918,-13.324"
         style="fill:#ffffff;fill-opacity:1;fill-rule:evenodd;stroke:none"
         id="path24" />
      <path
         d="m 1288.38,1188.12 c 33.57,0 73.99,-13.6 114.41,-53.83 6.74,53.83 53.73,87.32 67.14,94.15 -20.07,-27.01 -20.07,-67.33 -20.07,-107.66 26.82,20.26 80.55,26.83 127.63,6.67 -26.82,0 -67.15,-13.41 -87.31,-40.24 60.49,6.75 107.66,-20.25 134.48,-60.66 -33.57,13.59 -73.99,20.25 -114.32,13.59 20.07,-13.59 60.49,-60.671 80.75,-100.898 -26.92,13.317 -47.08,20.156 -87.5,26.821 6.75,-13.504 20.16,-47.079 20.16,-100.899 -13.41,20.242 -26.82,40.316 -53.82,53.82 6.75,-6.746 13.5,-20.156 6.75,-40.41 -6.75,13.59 -20.16,26.906 -20.16,26.906 V 360.648 H 494.664 v 60.575 h 901.376 v 497.761 c -6.76,0 -20.25,-13.504 -27.01,-26.82 -6.66,13.316 0,20.074 0,40.234 -26.82,-13.414 -33.57,-26.918 -60.49,-53.824 6.75,33.664 20.07,60.668 40.41,94.242 -27,6.653 -74.07,-13.418 -107.65,-26.828 20.26,33.481 67.24,67.142 107.65,80.562 -27,20.25 -67.41,20.25 -121.15,13.59 47.08,47.07 80.74,53.82 141.23,47.07 -13.41,33.57 -47.08,73.9 -80.65,100.91"
         style="fill:#0fab4b;fill-opacity:1;fill-rule:evenodd;stroke:none"
         id="path26" />
      <path
         d="M 1638.16,562.551 V 380.805 c 0,-13.305 -6.75,-20.157 -20.25,-20.157 -13.41,0 -26.82,6.852 -26.82,20.157 v 181.746 c 0,13.406 13.41,20.058 26.82,20.058 13.5,0 20.25,-6.652 20.25,-20.058"
         style="fill:#f0d112;fill-opacity:1;fill-rule:evenodd;stroke:none"
         id="path28" />
      <path
         d="M 1577.49,562.551 V 380.805 c 0,-13.305 -13.32,-20.157 -19.98,-20.157 -13.5,0 -27.1,6.852 -27.1,20.157 v 181.746 c 0,13.406 13.6,20.058 27.1,20.058 6.66,0 19.98,-6.652 19.98,-20.058"
         style="fill:#f0d112;fill-opacity:1;fill-rule:evenodd;stroke:none"
         id="path30" />
      <path
         d="m 494.664,461.555 v 100.996 c 0,13.406 6.754,20.058 20.164,20.058 13.461,0 20.207,-6.652 20.207,-20.058 V 461.555 c 0,-13.328 -6.746,-20.075 -20.207,-20.075 -13.41,0 -20.164,6.747 -20.164,20.075"
         style="fill:#f0d112;fill-opacity:1;fill-rule:evenodd;stroke:none"
         id="path32" />
      <path
         d="m 555.199,461.555 v 100.996 c 0,13.406 6.754,20.058 20.168,20.058 13.36,0 20.199,-6.652 20.199,-20.058 V 461.555 c 0,-13.328 -6.839,-20.075 -20.199,-20.075 -13.414,0 -20.168,6.747 -20.168,20.075"
         style="fill:#f0d112;fill-opacity:1;fill-rule:evenodd;stroke:none"
         id="path34" />
      <path
         d="m 615.734,461.555 v 100.996 c 0,13.406 6.75,20.058 20.11,20.058 13.554,0 20.261,-6.652 20.261,-20.058 V 461.555 c 0,-13.328 -6.707,-20.075 -20.261,-20.075 -13.36,0 -20.11,6.747 -20.11,20.075"
         style="fill:#f0d112;fill-opacity:1;fill-rule:evenodd;stroke:none"
         id="path36" />
      <path
         d="m 676.262,461.555 v 100.996 c 0,13.406 6.758,20.058 20.207,20.058 13.414,0 20.261,-6.652 20.261,-20.058 V 461.555 c 0,-13.328 -6.847,-20.075 -20.261,-20.075 -13.449,0 -20.207,6.747 -20.207,20.075"
         style="fill:#f0d112;fill-opacity:1;fill-rule:evenodd;stroke:none"
         id="path38" />
      <path
         d="m 736.703,461.555 v 100.996 c 0,13.406 6.844,20.058 20.297,20.058 13.461,0 26.824,-6.652 26.824,-20.058 V 461.555 c 0,-13.328 -13.363,-20.075 -26.824,-20.075 -13.453,0 -20.297,6.747 -20.297,20.075"
         style="fill:#f0d112;fill-opacity:1;fill-rule:evenodd;stroke:none"
         id="path40" />
      <path
         d="m 824.242,461.555 v 208.554 c 0,6.746 6.75,20.254 20.207,20.254 13.461,0 20.164,-13.508 20.164,-20.254 V 461.555 c 0,-13.328 -6.703,-20.075 -20.164,-20.075 -13.457,0 -20.207,6.747 -20.207,20.075"
         style="fill:#f0d112;fill-opacity:1;fill-rule:evenodd;stroke:none"
         id="path42" />
      <path
         d="m 884.68,461.555 v 208.554 c 0,6.746 6.843,20.254 20.3,20.254 13.461,0 20.114,-13.508 20.114,-20.254 V 461.555 c 0,-13.328 -6.653,-20.075 -20.114,-20.075 -13.457,0 -20.3,6.747 -20.3,20.075"
         style="fill:#f0d112;fill-opacity:1;fill-rule:evenodd;stroke:none"
         id="path44" />
      <path
         d="m 945.348,461.555 v 208.554 c 0,6.746 6.754,20.254 20.257,20.254 13.325,0 19.977,-13.508 19.977,-20.254 V 461.555 c 0,-13.328 -6.652,-20.075 -19.977,-20.075 -13.503,0 -20.257,6.747 -20.257,20.075"
         style="fill:#f0d112;fill-opacity:1;fill-rule:evenodd;stroke:none"
         id="path46" />
      <path
         d="m 1005.93,461.555 v 208.554 c 0,6.746 6.66,20.254 20.07,20.254 13.5,0 20.25,-13.508 20.25,-20.254 V 461.555 c 0,-13.328 -6.75,-20.075 -20.25,-20.075 -13.41,0 -20.07,6.747 -20.07,20.075"
         style="fill:#f0d112;fill-opacity:1;fill-rule:evenodd;stroke:none"
         id="path48" />
      <path
         d="m 1066.42,461.555 v 208.554 c 0,6.746 6.65,20.254 20.16,20.254 13.49,0 27,-13.508 27,-20.254 V 461.555 c 0,-13.328 -13.51,-20.075 -27,-20.075 -13.51,0 -20.16,6.747 -20.16,20.075"
         style="fill:#f0d112;fill-opacity:1;fill-rule:evenodd;stroke:none"
         id="path50" />
      <path
         d="m 1153.91,461.555 v 100.996 c 0,13.406 6.66,20.058 20.07,20.058 13.49,0 20.25,-6.652 20.25,-20.058 V 461.555 c 0,-13.328 -6.76,-20.075 -20.25,-20.075 -13.41,0 -20.07,6.747 -20.07,20.075"
         style="fill:#f0d112;fill-opacity:1;fill-rule:evenodd;stroke:none"
         id="path52" />
      <path
         d="m 1214.39,461.555 v 100.996 c 0,13.406 6.66,20.058 20.17,20.058 13.49,0 20.24,-6.652 20.24,-20.058 V 461.555 c 0,-13.328 -6.75,-20.075 -20.24,-20.075 -13.51,0 -20.17,6.747 -20.17,20.075"
         style="fill:#f0d112;fill-opacity:1;fill-rule:evenodd;stroke:none"
         id="path54" />
      <path
         d="m 1274.88,461.555 v 100.996 c 0,13.406 6.66,20.058 20.25,20.058 13.41,0 20.16,-6.652 20.16,-20.058 V 461.555 c 0,-13.328 -6.75,-20.075 -20.16,-20.075 -13.59,0 -20.25,6.747 -20.25,20.075"
         style="fill:#f0d112;fill-opacity:1;fill-rule:evenodd;stroke:none"
         id="path56" />
      <path
         d="m 1335.46,461.555 v 100.996 c 0,13.406 6.75,20.058 20.16,20.058 13.41,0 20.17,-6.652 20.17,-20.058 V 461.555 c 0,-13.328 -6.76,-20.075 -20.17,-20.075 -13.41,0 -20.16,6.747 -20.16,20.075"
         style="fill:#f0d112;fill-opacity:1;fill-rule:evenodd;stroke:none"
         id="path58" />
      <path
         d="m 965.605,1759.77 c 13.325,0 26.817,-13.51 26.817,-26.82 0,-13.59 -13.492,-20.25 -26.817,-20.25 -13.503,0 -26.996,6.66 -26.996,20.25 0,13.31 13.493,26.82 26.996,26.82"
         style="fill:#f0d112;fill-opacity:1;fill-rule:evenodd;stroke:none"
         id="path60" />
      <path
         d="m 965.605,1692.44 80.645,-161.29 H 884.68 Z"
         style="fill:#f0d112;fill-opacity:1;fill-rule:evenodd;stroke:none"
         id="path62" />
      <path
         d="M 1046.25,1423.41 V 1322.5 c 0,-13.41 -6.75,-20.16 -20.25,-20.16 -13.41,0 -20.07,6.75 -20.07,20.16 v 100.91 c 0,13.58 6.66,20.15 20.07,20.15 13.5,0 20.25,-6.57 20.25,-20.15"
         style="fill:#f0d112;fill-opacity:1;fill-rule:evenodd;stroke:none"
         id="path64" />
      <path
         d="m 884.68,1504.23 h 161.57 v -40.42 H 884.68 v 40.42"
         style="fill:#f0d112;fill-opacity:1;fill-rule:evenodd;stroke:none"
         id="path66" />
      <path
         d="M 992.422,1423.41 V 1322.5 c 0,-13.41 -13.492,-20.16 -26.817,-20.16 -6.843,0 -20.257,6.75 -20.257,20.16 v 100.91 c 0,13.58 13.414,20.15 20.257,20.15 13.325,0 26.817,-6.57 26.817,-20.15"
         style="fill:#f0d112;fill-opacity:1;fill-rule:evenodd;stroke:none"
         id="path68" />
      <path
         d="m 884.68,1423.41 c 0,13.58 13.547,20.15 27.004,20.15 6.757,0 20.168,-6.57 20.168,-20.15 V 1322.5 c 0,-13.41 -13.411,-20.16 -20.168,-20.16 -13.457,0 -27.004,6.75 -27.004,20.16 v 100.91"
         style="fill:#f0d112;fill-opacity:1;fill-rule:evenodd;stroke:none"
         id="path70" />
      <path
         d="M 757,730.594 965.605,851.656 1173.98,730.594 c 13.49,-6.653 13.49,-20.071 6.65,-33.489 -6.65,-6.742 -20.06,-13.582 -26.72,-6.742 L 965.605,798.016 777.168,690.363 c -6.707,-6.84 -20.168,0 -26.918,6.742 -6.703,13.418 0,26.836 6.75,33.489"
         style="fill:#f0d112;fill-opacity:1;fill-rule:evenodd;stroke:none"
         id="path72" />
      <path
         d="M 319.781,670.109 H 750.25 c 20.211,0 33.574,-13.507 33.574,-26.828 0,-20.25 -13.363,-33.664 -33.574,-33.664 H 319.781 c -20.168,0 -27.011,13.414 -27.011,33.664 0,13.321 6.843,26.828 27.011,26.828"
         style="fill:#f0d112;fill-opacity:1;fill-rule:evenodd;stroke:none"
         id="path74" />
      <path
         d="M 461.051,569.203 V 380.805 c 0,-13.305 -13.457,-20.157 -26.914,-20.157 -13.36,0 -20.164,6.852 -20.164,20.157 v 188.398 c 0,6.754 6.804,20.254 20.164,20.254 13.457,0 26.914,-13.5 26.914,-20.254"
         style="fill:#f0d112;fill-opacity:1;fill-rule:evenodd;stroke:none"
         id="path76" />
      <path
         d="M 333.234,569.203 V 380.805 c 0,-13.305 -6.707,-20.157 -20.16,-20.157 -13.461,0 -20.304,6.852 -20.304,20.157 v 188.398 c 0,6.754 6.843,20.254 20.304,20.254 13.453,0 20.16,-13.5 20.16,-20.254"
         style="fill:#f0d112;fill-opacity:1;fill-rule:evenodd;stroke:none"
         id="path78" />
      <path
         d="m 393.762,380.805 c 0,-13.305 -6.696,-20.157 -20.157,-20.157 -13.457,0 -20.16,6.852 -20.16,20.157 v 188.398 c 0,6.754 6.703,20.254 20.16,20.254 13.461,0 20.157,-13.5 20.157,-20.254 V 380.805"
         style="fill:#f0d112;fill-opacity:1;fill-rule:evenodd;stroke:none"
         id="path80" />
      <path
         d="m 528.289,306.832 h 33.664 v -147.98 h -33.664 v 147.98"
         style="fill:#ffffff;fill-opacity:1;fill-rule:evenodd;stroke:none"
         id="path82" />
      <path
         d="m 622.484,158.852 c -20.207,0 -33.757,0 -47.117,13.496 l 20.199,27.004 c 6.711,-6.747 20.168,-13.59 26.918,-13.59 6.704,0 20.161,6.843 20.161,13.59 0,26.832 -60.532,13.328 -60.532,60.394 0,33.762 20.164,47.086 47.075,47.086 13.457,0 33.625,0 40.371,-13.324 l -20.161,-20.246 c 0,0 -13.554,6.734 -20.21,6.734 -6.704,0 -20.157,-6.734 -20.157,-13.402 0,-27.016 60.528,-13.418 60.528,-60.59 0,-33.656 -20.161,-47.152 -47.075,-47.152"
         style="fill:#ffffff;fill-opacity:1;fill-rule:evenodd;stroke:none"
         id="path84" />
      <path
         d="m 1073.07,158.852 h -40.41 L 978.93,266.594 V 158.852 h -33.582 v 147.98 h 40.234 L 1039.5,206.004 v 100.828 h 33.57 v -147.98"
         style="fill:#ffffff;fill-opacity:1;fill-rule:evenodd;stroke:none"
         id="path86" />
      <path
         d="m 1187.47,158.852 h -94.13 v 147.98 h 94.13 v -33.57 h -60.57 v -26.84 h 53.73 V 219.52 h -53.73 v -26.915 h 60.57 v -33.753"
         style="fill:#ffffff;fill-opacity:1;fill-rule:evenodd;stroke:none"
         id="path88" />
      <path
         d="m 1295.13,158.852 c -40.33,0 -67.33,26.91 -67.33,73.988 0,47.156 27,73.992 67.33,73.992 20.16,0 33.48,0 47.08,-20.176 l -20.26,-20.062 c -6.66,6.668 -13.41,13.402 -26.82,13.402 -20.25,0 -40.33,-20.25 -40.33,-47.156 0,-26.836 20.08,-47.078 40.33,-47.078 13.41,0 20.16,6.843 26.82,13.59 l 20.26,-20.247 c -6.75,-13.5 -26.92,-20.253 -47.08,-20.253"
         style="fill:#ffffff;fill-opacity:1;fill-rule:evenodd;stroke:none"
         id="path90" />
      <path
         d="m 1355.62,306.832 h 33.66 v -147.98 h -33.66 v 147.98"
         style="fill:#ffffff;fill-opacity:1;fill-rule:evenodd;stroke:none"
         id="path92" />
      <path
         d="m 1503.59,279.996 h -33.66 V 158.852 h -33.57 v 121.144 h -33.57 v 26.836 h 100.8 v -26.836"
         style="fill:#ffffff;fill-opacity:1;fill-rule:evenodd;stroke:none"
         id="path94" />
      <path
         d="m 1496.93,360.648 c -13.5,0 -27,6.852 -27,20.157 v 181.746 c 0,13.406 13.5,20.058 27,20.058 6.66,0 20.08,-6.652 20.08,-20.058 V 380.805 c 0,-13.305 -13.42,-20.157 -20.08,-20.157"
         style="fill:#f0d112;fill-opacity:1;fill-rule:evenodd;stroke:none"
         id="path96" />
      <path
         d="m 1591.09,219.52 v -60.668 h -26.92 v 60.668 l -53.83,87.312 h 40.33 l 26.82,-53.656 27.01,53.656 h 33.66 l -47.07,-87.312"
         style="fill:#ffffff;fill-opacity:1;fill-rule:evenodd;stroke:none"
         id="path98" />
      <path
         d="m 878.066,306.832 h -26.91 l -53.773,-147.98 h 33.609 l 6.617,33.753 h 53.914 l 13.457,-33.753 h 26.872 z m -26.91,-87.312 13.457,40.226 13.453,-40.226 z"
         style="fill:#ffffff;fill-opacity:1;fill-rule:evenodd;stroke:none"
         id="path100" />
      <path
         d="m 1032.66,1127.45 c 0,33.66 -33.48,67.32 -67.055,67.32 -33.753,0 -67.378,-33.66 -67.378,-67.32 0,-33.49 33.625,-67.15 67.378,-67.15 33.575,0 67.055,33.66 67.055,67.15 z m -147.98,154.81 h 161.57 V 858.496 L 965.605,905.48 884.68,858.496 v 423.764"
         style="fill:#f0d112;fill-opacity:1;fill-rule:evenodd;stroke:none"
         id="path102" />
      <path
         d="m 1005.93,1114.04 c 0,-6.66 -6.75,-6.66 -6.75,-6.66 l -33.575,20.07 c 0,0 -6.843,0 -6.843,13.59 v 26.83 c 0,6.65 0,13.49 6.843,13.49 6.567,0 6.567,-6.84 6.567,-13.49 v -26.83 l 33.758,-20.26 c 6.66,0 6.66,-6.74 0,-6.74"
         style="fill:#f0d112;fill-opacity:1;fill-rule:evenodd;stroke:none"
         id="path104" />
    </g>
  </g>
</svg>
